<svg xmlns="http://www.w3.org/2000/svg" xmlns:xlink="http://www.w3.org/1999/xlink" width="800" zoomAndPan="magnify" viewBox="0 0 600 374.999991" height="500" preserveAspectRatio="xMidYMid meet" version="1.0"><defs><g/></defs><g fill="#ff00ff" fill-opacity="1"><g transform="translate(43.242415, 181.59515)"><g><path d="M 18.296875 -75.328125 L 69.953125 -75.328125 L 69.953125 -62.40625 L 57.03125 -62.40625 L 57.03125 -12.90625 L 44.125 -12.90625 L 44.125 -62.40625 L 18.296875 -62.40625 Z M 18.296875 -12.90625 L 44.125 -12.90625 L 44.125 0 L 18.296875 0 L 18.296875 -12.90625 L 5.375 -12.90625 L 5.375 -25.828125 L 18.296875 -25.828125 Z M 18.296875 -12.90625 "/></g></g></g><g fill="#ff00ff" fill-opacity="1"><g transform="translate(130.078153, 181.59515)"><g><path d="M 18.296875 -62.40625 L 18.296875 -75.328125 L 44.125 -75.328125 L 44.125 -62.40625 L 57.03125 -62.40625 L 57.03125 0 L 44.125 0 L 44.125 -31.203125 L 18.296875 -31.203125 L 18.296875 0 L 5.375 0 L 5.375 -62.40625 L 18.296875 -62.40625 L 18.296875 -44.125 L 44.125 -44.125 L 44.125 -62.40625 Z M 18.296875 -62.40625 "/></g></g></g><g fill="#ff00ff" fill-opacity="1"><g transform="translate(203.894085, 181.59515)"><g><path d="M 5.375 -62.40625 L 18.296875 -62.40625 L 18.296875 -44.125 L 44.125 -44.125 L 44.125 -31.203125 L 57.03125 -31.203125 L 57.03125 -12.90625 L 44.125 -12.90625 L 44.125 -31.203125 L 18.296875 -31.203125 L 18.296875 -44.125 L 5.375 -44.125 Z M 18.296875 -12.90625 L 44.125 -12.90625 L 44.125 0 L 18.296875 0 L 18.296875 -12.90625 L 5.375 -12.90625 L 5.375 -25.828125 L 18.296875 -25.828125 Z M 18.296875 -75.328125 L 44.125 -75.328125 L 44.125 -62.40625 L 57.03125 -62.40625 L 57.03125 -49.5 L 44.125 -49.5 L 44.125 -62.40625 L 18.296875 -62.40625 Z M 18.296875 -75.328125 "/></g></g></g><g fill="#ff00ff" fill-opacity="1"><g transform="translate(277.710005, 181.59515)"><g><path d="M 5.375 -75.328125 L 18.296875 -75.328125 L 18.296875 -62.40625 L 31.203125 -62.40625 L 31.203125 -49.5 L 44.125 -49.5 L 44.125 -36.59375 L 31.203125 -36.59375 L 31.203125 -49.5 L 18.296875 -49.5 L 18.296875 0 L 5.375 0 Z M 57.03125 -49.5 L 44.125 -49.5 L 44.125 -62.40625 L 57.03125 -62.40625 L 57.03125 -75.328125 L 69.953125 -75.328125 L 69.953125 0 L 57.03125 0 Z M 57.03125 -49.5 "/></g></g></g><g fill="#ff00ff" fill-opacity="1"><g transform="translate(364.438134, 181.59515)"><g><path d="M 5.375 0 L 5.375 -75.328125 L 18.296875 -75.328125 L 18.296875 0 Z M 5.375 0 "/></g></g></g><g fill="#ff00ff" fill-opacity="1"><g transform="translate(399.625098, 181.59515)"><g><path d="M 5.375 -75.328125 L 18.296875 -75.328125 L 18.296875 -62.40625 L 31.203125 -62.40625 L 31.203125 -49.5 L 44.125 -49.5 L 44.125 -36.59375 L 57.03125 -36.59375 L 57.03125 -75.328125 L 69.953125 -75.328125 L 69.953125 0 L 57.03125 0 L 57.03125 -23.671875 L 44.125 -23.671875 L 44.125 -36.59375 L 31.203125 -36.59375 L 31.203125 -49.5 L 18.296875 -49.5 L 18.296875 0 L 5.375 0 Z M 5.375 -75.328125 "/></g></g></g><g fill="#ff00ff" fill-opacity="1"><g transform="translate(486.353226, 181.59515)"><g><path d="M 18.296875 -62.40625 L 18.296875 -75.328125 L 44.125 -75.328125 L 44.125 -62.40625 L 57.03125 -62.40625 L 57.03125 0 L 44.125 0 L 44.125 -31.203125 L 18.296875 -31.203125 L 18.296875 0 L 5.375 0 L 5.375 -62.40625 L 18.296875 -62.40625 L 18.296875 -44.125 L 44.125 -44.125 L 44.125 -62.40625 Z M 18.296875 -62.40625 "/></g></g></g><g fill="#00ffff" fill-opacity="1"><g transform="translate(51.334687, 183.612782)"><g><path d="M 18.296875 -75.328125 L 69.953125 -75.328125 L 69.953125 -62.40625 L 57.03125 -62.40625 L 57.03125 -12.90625 L 44.125 -12.90625 L 44.125 -62.40625 L 18.296875 -62.40625 Z M 18.296875 -12.90625 L 44.125 -12.90625 L 44.125 0 L 18.296875 0 L 18.296875 -12.90625 L 5.375 -12.90625 L 5.375 -25.828125 L 18.296875 -25.828125 Z M 18.296875 -12.90625 "/></g></g></g><g fill="#00ffff" fill-opacity="1"><g transform="translate(138.170425, 183.612782)"><g><path d="M 18.296875 -62.40625 L 18.296875 -75.328125 L 44.125 -75.328125 L 44.125 -62.40625 L 57.03125 -62.40625 L 57.03125 0 L 44.125 0 L 44.125 -31.203125 L 18.296875 -31.203125 L 18.296875 0 L 5.375 0 L 5.375 -62.40625 L 18.296875 -62.40625 L 18.296875 -44.125 L 44.125 -44.125 L 44.125 -62.40625 Z M 18.296875 -62.40625 "/></g></g></g><g fill="#00ffff" fill-opacity="1"><g transform="translate(211.986357, 183.612782)"><g><path d="M 5.375 -62.40625 L 18.296875 -62.40625 L 18.296875 -44.125 L 44.125 -44.125 L 44.125 -31.203125 L 57.03125 -31.203125 L 57.03125 -12.90625 L 44.125 -12.90625 L 44.125 -31.203125 L 18.296875 -31.203125 L 18.296875 -44.125 L 5.375 -44.125 Z M 18.296875 -12.90625 L 44.125 -12.90625 L 44.125 0 L 18.296875 0 L 18.296875 -12.90625 L 5.375 -12.90625 L 5.375 -25.828125 L 18.296875 -25.828125 Z M 18.296875 -75.328125 L 44.125 -75.328125 L 44.125 -62.40625 L 57.03125 -62.40625 L 57.03125 -49.5 L 44.125 -49.5 L 44.125 -62.40625 L 18.296875 -62.40625 Z M 18.296875 -75.328125 "/></g></g></g><g fill="#00ffff" fill-opacity="1"><g transform="translate(285.802278, 183.612782)"><g><path d="M 5.375 -75.328125 L 18.296875 -75.328125 L 18.296875 -62.40625 L 31.203125 -62.40625 L 31.203125 -49.5 L 44.125 -49.5 L 44.125 -36.59375 L 31.203125 -36.59375 L 31.203125 -49.5 L 18.296875 -49.5 L 18.296875 0 L 5.375 0 Z M 57.03125 -49.5 L 44.125 -49.5 L 44.125 -62.40625 L 57.03125 -62.40625 L 57.03125 -75.328125 L 69.953125 -75.328125 L 69.953125 0 L 57.03125 0 Z M 57.03125 -49.5 "/></g></g></g><g fill="#00ffff" fill-opacity="1"><g transform="translate(372.530406, 183.612782)"><g><path d="M 5.375 0 L 5.375 -75.328125 L 18.296875 -75.328125 L 18.296875 0 Z M 5.375 0 "/></g></g></g><g fill="#00ffff" fill-opacity="1"><g transform="translate(407.71737, 183.612782)"><g><path d="M 5.375 -75.328125 L 18.296875 -75.328125 L 18.296875 -62.40625 L 31.203125 -62.40625 L 31.203125 -49.5 L 44.125 -49.5 L 44.125 -36.59375 L 57.03125 -36.59375 L 57.03125 -75.328125 L 69.953125 -75.328125 L 69.953125 0 L 57.03125 0 L 57.03125 -23.671875 L 44.125 -23.671875 L 44.125 -36.59375 L 31.203125 -36.59375 L 31.203125 -49.5 L 18.296875 -49.5 L 18.296875 0 L 5.375 0 Z M 5.375 -75.328125 "/></g></g></g><g fill="#00ffff" fill-opacity="1"><g transform="translate(494.445498, 183.612782)"><g><path d="M 18.296875 -62.40625 L 18.296875 -75.328125 L 44.125 -75.328125 L 44.125 -62.40625 L 57.03125 -62.40625 L 57.03125 0 L 44.125 0 L 44.125 -31.203125 L 18.296875 -31.203125 L 18.296875 0 L 5.375 0 L 5.375 -62.40625 L 18.296875 -62.40625 L 18.296875 -44.125 L 44.125 -44.125 L 44.125 -62.40625 Z M 18.296875 -62.40625 "/></g></g></g><g fill="#3b1b72" fill-opacity="1"><g transform="translate(47.288552, 182.603966)"><g><path d="M 18.296875 -75.328125 L 69.953125 -75.328125 L 69.953125 -62.40625 L 57.03125 -62.40625 L 57.03125 -12.90625 L 44.125 -12.90625 L 44.125 -62.40625 L 18.296875 -62.40625 Z M 18.296875 -12.90625 L 44.125 -12.90625 L 44.125 0 L 18.296875 0 L 18.296875 -12.90625 L 5.375 -12.90625 L 5.375 -25.828125 L 18.296875 -25.828125 Z M 18.296875 -12.90625 "/></g></g></g><g fill="#3b1b72" fill-opacity="1"><g transform="translate(134.124289, 182.603966)"><g><path d="M 18.296875 -62.40625 L 18.296875 -75.328125 L 44.125 -75.328125 L 44.125 -62.40625 L 57.03125 -62.40625 L 57.03125 0 L 44.125 0 L 44.125 -31.203125 L 18.296875 -31.203125 L 18.296875 0 L 5.375 0 L 5.375 -62.40625 L 18.296875 -62.40625 L 18.296875 -44.125 L 44.125 -44.125 L 44.125 -62.40625 Z M 18.296875 -62.40625 "/></g></g></g><g fill="#3b1b72" fill-opacity="1"><g transform="translate(207.940221, 182.603966)"><g><path d="M 5.375 -62.40625 L 18.296875 -62.40625 L 18.296875 -44.125 L 44.125 -44.125 L 44.125 -31.203125 L 57.03125 -31.203125 L 57.03125 -12.90625 L 44.125 -12.90625 L 44.125 -31.203125 L 18.296875 -31.203125 L 18.296875 -44.125 L 5.375 -44.125 Z M 18.296875 -12.90625 L 44.125 -12.90625 L 44.125 0 L 18.296875 0 L 18.296875 -12.90625 L 5.375 -12.90625 L 5.375 -25.828125 L 18.296875 -25.828125 Z M 18.296875 -75.328125 L 44.125 -75.328125 L 44.125 -62.40625 L 57.03125 -62.40625 L 57.03125 -49.5 L 44.125 -49.5 L 44.125 -62.40625 L 18.296875 -62.40625 Z M 18.296875 -75.328125 "/></g></g></g><g fill="#3b1b72" fill-opacity="1"><g transform="translate(281.756142, 182.603966)"><g><path d="M 5.375 -75.328125 L 18.296875 -75.328125 L 18.296875 -62.40625 L 31.203125 -62.40625 L 31.203125 -49.5 L 44.125 -49.5 L 44.125 -36.59375 L 31.203125 -36.59375 L 31.203125 -49.5 L 18.296875 -49.5 L 18.296875 0 L 5.375 0 Z M 57.03125 -49.5 L 44.125 -49.5 L 44.125 -62.40625 L 57.03125 -62.40625 L 57.03125 -75.328125 L 69.953125 -75.328125 L 69.953125 0 L 57.03125 0 Z M 57.03125 -49.5 "/></g></g></g><g fill="#3b1b72" fill-opacity="1"><g transform="translate(368.48427, 182.603966)"><g><path d="M 5.375 0 L 5.375 -75.328125 L 18.296875 -75.328125 L 18.296875 0 Z M 5.375 0 "/></g></g></g><g fill="#3b1b72" fill-opacity="1"><g transform="translate(403.671234, 182.603966)"><g><path d="M 5.375 -75.328125 L 18.296875 -75.328125 L 18.296875 -62.40625 L 31.203125 -62.40625 L 31.203125 -49.5 L 44.125 -49.5 L 44.125 -36.59375 L 57.03125 -36.59375 L 57.03125 -75.328125 L 69.953125 -75.328125 L 69.953125 0 L 57.03125 0 L 57.03125 -23.671875 L 44.125 -23.671875 L 44.125 -36.59375 L 31.203125 -36.59375 L 31.203125 -49.5 L 18.296875 -49.5 L 18.296875 0 L 5.375 0 Z M 5.375 -75.328125 "/></g></g></g><g fill="#3b1b72" fill-opacity="1"><g transform="translate(490.399362, 182.603966)"><g><path d="M 18.296875 -62.40625 L 18.296875 -75.328125 L 44.125 -75.328125 L 44.125 -62.40625 L 57.03125 -62.40625 L 57.03125 0 L 44.125 0 L 44.125 -31.203125 L 18.296875 -31.203125 L 18.296875 0 L 5.375 0 L 5.375 -62.40625 L 18.296875 -62.40625 L 18.296875 -44.125 L 44.125 -44.125 L 44.125 -62.40625 Z M 18.296875 -62.40625 "/></g></g></g><g fill="#ff00ff" fill-opacity="1"><g transform="translate(41.995804, 291.604668)"><g><path d="M 18.296875 -62.40625 L 18.296875 -44.125 L 44.125 -44.125 L 44.125 -31.203125 L 57.03125 -31.203125 L 57.03125 0 L 44.125 0 L 44.125 -31.203125 L 18.296875 -31.203125 L 18.296875 0 L 5.375 0 L 5.375 -75.328125 L 44.125 -75.328125 L 44.125 -62.40625 L 57.03125 -62.40625 L 57.03125 -44.125 L 44.125 -44.125 L 44.125 -62.40625 Z M 18.296875 -62.40625 "/></g></g></g><g fill="#ff00ff" fill-opacity="1"><g transform="translate(115.811736, 291.604668)"><g><path d="M 18.296875 -62.40625 L 18.296875 -75.328125 L 44.125 -75.328125 L 44.125 -62.40625 L 57.03125 -62.40625 L 57.03125 -12.90625 L 44.125 -12.90625 L 44.125 -62.40625 Z M 18.296875 -62.40625 L 18.296875 -12.90625 L 44.125 -12.90625 L 44.125 0 L 18.296875 0 L 18.296875 -12.90625 L 5.375 -12.90625 L 5.375 -62.40625 Z M 18.296875 -62.40625 "/></g></g></g><g fill="#ff00ff" fill-opacity="1"><g transform="translate(189.627668, 291.604668)"><g><path d="M 5.375 -75.328125 L 57.03125 -75.328125 L 57.03125 -62.40625 L 37.65625 -62.40625 L 37.65625 0 L 24.75 0 L 24.75 -62.40625 L 5.375 -62.40625 Z M 5.375 -75.328125 "/></g></g></g><g fill="#ff00ff" fill-opacity="1"><g transform="translate(263.443589, 291.604668)"><g><path d="M 5.375 -75.328125 L 57.03125 -75.328125 L 57.03125 -62.40625 L 18.296875 -62.40625 L 18.296875 -44.125 L 44.125 -44.125 L 44.125 -31.203125 L 18.296875 -31.203125 L 18.296875 -12.90625 L 57.03125 -12.90625 L 57.03125 0 L 5.375 0 Z M 5.375 -75.328125 "/></g></g></g><g fill="#ff00ff" fill-opacity="1"><g transform="translate(337.36713, 291.604668)"><g><path d="M 5.375 -75.328125 L 18.296875 -75.328125 L 18.296875 -12.90625 L 57.03125 -12.90625 L 57.03125 0 L 5.375 0 Z M 5.375 -75.328125 "/></g></g></g><g fill="#ff00ff" fill-opacity="1"><g transform="translate(411.18305, 291.604668)"><g><path d="M 5.375 -75.328125 L 18.296875 -75.328125 L 18.296875 -12.90625 L 57.03125 -12.90625 L 57.03125 0 L 5.375 0 Z M 5.375 -75.328125 "/></g></g></g><g fill="#ff00ff" fill-opacity="1"><g transform="translate(484.998994, 291.604668)"><g><path d="M 18.296875 -62.40625 L 18.296875 -75.328125 L 44.125 -75.328125 L 44.125 -62.40625 L 57.03125 -62.40625 L 57.03125 0 L 44.125 0 L 44.125 -31.203125 L 18.296875 -31.203125 L 18.296875 0 L 5.375 0 L 5.375 -62.40625 L 18.296875 -62.40625 L 18.296875 -44.125 L 44.125 -44.125 L 44.125 -62.40625 Z M 18.296875 -62.40625 "/></g></g></g><g fill="#00ffff" fill-opacity="1"><g transform="translate(52.698487, 294.273144)"><g><path d="M 18.296875 -62.40625 L 18.296875 -44.125 L 44.125 -44.125 L 44.125 -31.203125 L 57.03125 -31.203125 L 57.03125 0 L 44.125 0 L 44.125 -31.203125 L 18.296875 -31.203125 L 18.296875 0 L 5.375 0 L 5.375 -75.328125 L 44.125 -75.328125 L 44.125 -62.40625 L 57.03125 -62.40625 L 57.03125 -44.125 L 44.125 -44.125 L 44.125 -62.40625 Z M 18.296875 -62.40625 "/></g></g></g><g fill="#00ffff" fill-opacity="1"><g transform="translate(126.514419, 294.273144)"><g><path d="M 18.296875 -62.40625 L 18.296875 -75.328125 L 44.125 -75.328125 L 44.125 -62.40625 L 57.03125 -62.40625 L 57.03125 -12.90625 L 44.125 -12.90625 L 44.125 -62.40625 Z M 18.296875 -62.40625 L 18.296875 -12.90625 L 44.125 -12.90625 L 44.125 0 L 18.296875 0 L 18.296875 -12.90625 L 5.375 -12.90625 L 5.375 -62.40625 Z M 18.296875 -62.40625 "/></g></g></g><g fill="#00ffff" fill-opacity="1"><g transform="translate(200.330351, 294.273144)"><g><path d="M 5.375 -75.328125 L 57.03125 -75.328125 L 57.03125 -62.40625 L 37.65625 -62.40625 L 37.65625 0 L 24.75 0 L 24.75 -62.40625 L 5.375 -62.40625 Z M 5.375 -75.328125 "/></g></g></g><g fill="#00ffff" fill-opacity="1"><g transform="translate(274.146272, 294.273144)"><g><path d="M 5.375 -75.328125 L 57.03125 -75.328125 L 57.03125 -62.40625 L 18.296875 -62.40625 L 18.296875 -44.125 L 44.125 -44.125 L 44.125 -31.203125 L 18.296875 -31.203125 L 18.296875 -12.90625 L 57.03125 -12.90625 L 57.03125 0 L 5.375 0 Z M 5.375 -75.328125 "/></g></g></g><g fill="#00ffff" fill-opacity="1"><g transform="translate(348.069813, 294.273144)"><g><path d="M 5.375 -75.328125 L 18.296875 -75.328125 L 18.296875 -12.90625 L 57.03125 -12.90625 L 57.03125 0 L 5.375 0 Z M 5.375 -75.328125 "/></g></g></g><g fill="#00ffff" fill-opacity="1"><g transform="translate(421.885734, 294.273144)"><g><path d="M 5.375 -75.328125 L 18.296875 -75.328125 L 18.296875 -12.90625 L 57.03125 -12.90625 L 57.03125 0 L 5.375 0 Z M 5.375 -75.328125 "/></g></g></g><g fill="#00ffff" fill-opacity="1"><g transform="translate(495.701678, 294.273144)"><g><path d="M 18.296875 -62.40625 L 18.296875 -75.328125 L 44.125 -75.328125 L 44.125 -62.40625 L 57.03125 -62.40625 L 57.03125 0 L 44.125 0 L 44.125 -31.203125 L 18.296875 -31.203125 L 18.296875 0 L 5.375 0 L 5.375 -62.40625 L 18.296875 -62.40625 L 18.296875 -44.125 L 44.125 -44.125 L 44.125 -62.40625 Z M 18.296875 -62.40625 "/></g></g></g><g fill="#3b1b72" fill-opacity="1"><g transform="translate(47.347145, 292.938907)"><g><path d="M 18.296875 -62.40625 L 18.296875 -44.125 L 44.125 -44.125 L 44.125 -31.203125 L 57.03125 -31.203125 L 57.03125 0 L 44.125 0 L 44.125 -31.203125 L 18.296875 -31.203125 L 18.296875 0 L 5.375 0 L 5.375 -75.328125 L 44.125 -75.328125 L 44.125 -62.40625 L 57.03125 -62.40625 L 57.03125 -44.125 L 44.125 -44.125 L 44.125 -62.40625 Z M 18.296875 -62.40625 "/></g></g></g><g fill="#3b1b72" fill-opacity="1"><g transform="translate(121.163077, 292.938907)"><g><path d="M 18.296875 -62.40625 L 18.296875 -75.328125 L 44.125 -75.328125 L 44.125 -62.40625 L 57.03125 -62.40625 L 57.03125 -12.90625 L 44.125 -12.90625 L 44.125 -62.40625 Z M 18.296875 -62.40625 L 18.296875 -12.90625 L 44.125 -12.90625 L 44.125 0 L 18.296875 0 L 18.296875 -12.90625 L 5.375 -12.90625 L 5.375 -62.40625 Z M 18.296875 -62.40625 "/></g></g></g><g fill="#3b1b72" fill-opacity="1"><g transform="translate(194.979009, 292.938907)"><g><path d="M 5.375 -75.328125 L 57.03125 -75.328125 L 57.03125 -62.40625 L 37.65625 -62.40625 L 37.65625 0 L 24.75 0 L 24.75 -62.40625 L 5.375 -62.40625 Z M 5.375 -75.328125 "/></g></g></g><g fill="#3b1b72" fill-opacity="1"><g transform="translate(268.79493, 292.938907)"><g><path d="M 5.375 -75.328125 L 57.03125 -75.328125 L 57.03125 -62.40625 L 18.296875 -62.40625 L 18.296875 -44.125 L 44.125 -44.125 L 44.125 -31.203125 L 18.296875 -31.203125 L 18.296875 -12.90625 L 57.03125 -12.90625 L 57.03125 0 L 5.375 0 Z M 5.375 -75.328125 "/></g></g></g><g fill="#3b1b72" fill-opacity="1"><g transform="translate(342.718471, 292.938907)"><g><path d="M 5.375 -75.328125 L 18.296875 -75.328125 L 18.296875 -12.90625 L 57.03125 -12.90625 L 57.03125 0 L 5.375 0 Z M 5.375 -75.328125 "/></g></g></g><g fill="#3b1b72" fill-opacity="1"><g transform="translate(416.534392, 292.938907)"><g><path d="M 5.375 -75.328125 L 18.296875 -75.328125 L 18.296875 -12.90625 L 57.03125 -12.90625 L 57.03125 0 L 5.375 0 Z M 5.375 -75.328125 "/></g></g></g><g fill="#3b1b72" fill-opacity="1"><g transform="translate(490.350336, 292.938907)"><g><path d="M 18.296875 -62.40625 L 18.296875 -75.328125 L 44.125 -75.328125 L 44.125 -62.40625 L 57.03125 -62.40625 L 57.03125 0 L 44.125 0 L 44.125 -31.203125 L 18.296875 -31.203125 L 18.296875 0 L 5.375 0 L 5.375 -62.40625 L 18.296875 -62.40625 L 18.296875 -44.125 L 44.125 -44.125 L 44.125 -62.40625 Z M 18.296875 -62.40625 "/></g></g></g></svg>